# xmcd CD database file
#
# Track frame offsets:
#	150
#	6304
#	36972
#	70022
#	100748
#	132029
#	157942
#
# Disc length: 2203 seconds
#
# Revision: 0
# Processed by: cddbd v1.5.1PL0 Copyright (c) Steve Scherf et al.
# Submitted via: CDex 1.51
#
DISCID=4d089907
DTITLE=Parker - Gillespie - At Town Hall Jun 22 1945
DYEAR=2005
DGENRE=Jazz
TTITLE0=Intro
TTITLE1=Bebop
TTITLE2=A Night in Tunisia
TTITLE3=Groovin' High
TTITLE4=Salt Peanuts
TTITLE5=Hot House
TTITLE6=Fifty-Second Street
EXTD=YEAR: 2005
EXTT0=
EXTT1=
EXTT2=
EXTT3=
EXTT4=
EXTT5=
EXTT6=
PLAYORDER=
